<svg version="1.2" xmlns="http://www.w3.org/2000/svg" viewBox="0 0 90 90" width="90" height="90"><style>.a{fill:#fff}</style><path fill-rule="evenodd" class="a" d="m86.3 21.7l3.7-3.7-18-18-3.7 3.7 2.6 2.7-9.3 9.3-9.6-9.6-3.7 3.7 5.2 5.3-41.4 41.4 4.4 4.4-8.8 8.8 4.4 4.4-12.1 12.2 3.7 3.7 12.2-12.1 4.4 4.4 8.8-8.8 4.4 4.4 41.4-41.4 5.3 5.2 3.7-3.7-9.6-9.6 9.3-9.3zm-65.9 53.1l-5.1-5.1 5.1-5.1 5.1 5.1zm13.2-4.4l-13.9-13.9 5.3-5.4 3.2 3.2 3.7-3.7-3.2-3.2 3.8-3.8 3.2 3.2 3.7-3.7-3.2-3.2 3.8-3.8 13.9 14zm24.1-24.1l-13.9-13.9 3.7-3.8 3.2 3.2 3.8-3.7-3.2-3.2 6.1-6.2 13.9 14zm13-21.7l-5.2-5.3 9.3-9.3 5.2 5.3z"/></svg>