<svg version="1.2" xmlns="http://www.w3.org/2000/svg" viewBox="0 0 75 88" width="75" height="88"><style>.a{fill:#fff}</style><path fill-rule="evenodd" class="a" d="m11.4 46.1c0.2 1.7 1.2 3.4 2.8 4.3q2.1 1.2 4.3 1.8c-0.8 2.8-2.3 6.8-5 11.1-2.6 4.1-2.6 9-0.1 13.6 3.7 6.6 11.9 11.1 20.3 11.1 5.8 0 10.9-2.7 14.5-7.5 5.1-7 6.2-17.2 3-27.4-3-9.5 1-14.6 3.6-16.7 2.2 2 5.1 3.3 8.3 3.3 6.6 0 11.9-5.3 11.9-11.9 0-6.6-5.3-12-11.9-12-6.6 0-11.9 5.4-11.9 12q0 1.4 0.3 2.7c-5 3.6-10.7 11.8-6.7 24.6 2.5 8 1.8 16.3-2 21.4-1.6 2.2-4.5 4.8-9.1 4.8-6 0-11.9-3.2-14.4-7.7-0.9-1.7-1.7-4.2-0.1-6.7 3.5-5.8 5.3-11.1 6.2-14.3q2.9-0.5 5.7-2c1.7-0.8 2.7-2.5 2.9-4.2 7.9-7.1 11.5-20 11.7-20.7 0.4-1.5-0.3-3.1-1.6-3.9 1.1-9.6-2.5-14.5-4.6-16.4 0.1-1-0.3-2-1.1-2.5l-3.9-2.6c-1-0.6-2.3-0.3-2.9 0.8l-1.9 3.6c-0.6 1.1-0.1 2.3 1.1 2.7l4.5 1.3c1.1 0.3 2.5-0.2 3.1-1.2 1.8 1.9 4.4 6 3.5 14-1.2 0.2-2.3 1.1-2.6 2.4-1.1 3.9-4.2 11.8-8.8 16.6-1.5-0.6-3.1-0.5-4.6 0.3q-1.5 0.7-2.9 0.8h-0.2q-1.6-0.1-3.1-0.9c-1.5-0.8-3.1-0.9-4.6-0.4-4.5-4.8-7.5-12.6-8.6-16.4-0.3-1.3-1.4-2.1-2.6-2.4-0.8-8 1.7-12.1 3.5-14 0.6 1 2 1.5 3.1 1.2l4.5-1.3c1.2-0.4 1.7-1.6 1.1-2.7l-1.9-3.6c-0.5-1.1-1.8-1.4-2.9-0.8l-3.9 2.6c-0.8 0.6-1.2 1.5-1 2.5-2.2 1.9-5.7 6.8-4.7 16.4-1.3 0.8-2 2.4-1.6 3.9 0.2 0.7 3.7 13.2 11.3 20.4zm51.7-23c2.6 0 4.6 2.1 4.6 4.7 0 2.6-2 4.6-4.6 4.6-2.6 0-4.7-2-4.7-4.6 0-2.6 2.1-4.7 4.7-4.7z"/></svg>