<svg version="1.2" xmlns="http://www.w3.org/2000/svg" viewBox="0 0 102 89" width="102" height="89"><style>.a{fill:#fff}</style><path fill-rule="evenodd" class="a" d="m86.6 12.2c0 1-0.9 1.9-2 1.9-1.1 0-2-0.9-2-1.9 0-1.1 0.9-2 2-2 1.1 0 2 0.9 2 2zm15.4 15.2c0 20-21.4 36.9-49.7 61.1-0.4 0.3-0.8 0.5-1.3 0.5-0.5 0-0.9-0.2-1.3-0.5-28.2-24.1-49.7-41-49.7-61.1 0-14.9 10.5-27.4 25.6-27.4 7.9 0 15.1 3 20.9 8.8 2 1.9 3.5 3.9 4.5 5.5 1-1.6 2.5-3.6 4.5-5.5 5.8-5.8 13-8.8 20.9-8.8 7.2 0 13.8 2.9 18.5 8.2 4.6 5.1 7.1 11.9 7.1 19.2zm-4 0c0-13.4-9.3-23.5-21.6-23.5-6.9 0-12.9 2.6-18 7.5-3.8 3.8-5.6 7.7-5.6 7.7-0.3 0.7-1 1.2-1.8 1.2q0 0 0 0c-0.8 0-1.5-0.5-1.8-1.2 0 0-1.8-3.9-5.6-7.7-5.1-4.9-11.1-7.5-18-7.5-12.3 0-21.6 10.1-21.6 23.5 0 17.9 20.4 34.2 47 57 25.3-21.6 47-38.7 47-57zm-4 0c0 6.6-3 13.4-9.5 21.4-0.6 0.9-1.9 1-2.8 0.4-0.8-0.7-1-2-0.3-2.8 5.9-7.3 8.6-13.3 8.6-19 0-2.9-0.7-5.9-2-8.4-0.5-0.9-0.1-2.1 0.8-2.6 1-0.5 2.2-0.2 2.7 0.8 1.7 3.1 2.5 6.6 2.5 10.2zm-21.9 12.3v11.9c0 1-0.9 1.9-2 1.9h-11.1v11.1c0 1.1-0.9 1.9-2 1.9h-12c-1.1 0-2-0.8-2-1.9v-11.1h-11.1c-1.1 0-2-0.9-2-1.9v-11.9c0-1.1 0.9-1.9 2-1.9h11.1v-11.1c0-1.1 0.9-1.9 2-1.9h12c1.1 0 2 0.8 2 1.9v11.1h11.1c1.1 0 2 0.8 2 1.9zm-4 2h-11.1c-1.1 0-2-0.9-2-2v-11h-8v11c0 1.1-0.9 2-2 2h-11.1v7.9h11.1c1.1 0 2 0.9 2 2v11h8v-11c0-1.1 0.9-2 2-2h11.1z"/></svg>